<svg xmlns="http://www.w3.org/2000/svg" width="128" height="128"><g fill="none" fill-rule="nonzero"><path fill="#000" d="M63.653 108.716c23.957 0 44.699-17.118 44.699-40.17 0-1.449-.09-2.943-.272-4.393.181-1.449.272-2.943.272-4.438 0-23.142-20.787-40.215-44.699-40.215C39.696 19.5 19 36.71 19 59.715c0 1.495.09 2.99.272 4.438A35.202 35.202 0 0 0 19 68.546c0 22.916 20.696 40.17 44.653 40.17Z"/><path fill="#FF8080" d="M63.653 94.45C42.821 94.45 24.3 79.733 24.3 59.716c0-19.881 18.341-34.916 39.354-34.916 20.833 0 39.4 14.809 39.4 34.916 0 19.927-18.296 34.736-39.4 34.736Z"/><path fill="#000" d="M63.246 72.758c8.242 0 14.809-5.435 14.809-13.043.045-7.2-6.567-13.178-14.402-13.178-7.744 0-14.446 5.796-14.401 13.178 0 7.608 7.065 13.043 13.994 13.043Z"/><path fill="#FFF" d="M63.382 67.46c-3.08 0-4.937-.725-7.337-3.669 1.857-1.72 4.62-2.989 7.608-2.989 2.99 0 5.752 1.268 7.7 3.034-1.812 2.129-4.213 3.623-7.971 3.623Z"/><path fill="#FF9400" d="M63.653 103.418c-14.446 0-27.897-7.246-34.735-18.478 8.378 9.239 21.104 14.9 34.735 14.9 13.722 0 26.448-5.661 34.781-14.854-6.793 11.14-20.198 18.432-34.78 18.432ZM72.484 58.266c-2.264-1.72-5.615-2.763-8.83-2.763-3.08 0-6.431.951-8.832 2.763.77-3.578 4.438-6.295 8.831-6.295s8.062 2.717 8.831 6.295Z"/><path fill="#FCC" d="M71.298 43.189a1.627 1.627 0 0 1 2.159-.798c6.527 3.006 10.579 7.937 12.047 14.676l.127.617.025.195c.546 7.985-3.59 14.269-12.136 18.661a1.627 1.627 0 1 1-1.488-2.894c7.281-3.742 10.665-8.71 10.403-15.076l-.022-.376-.093-.456c-1.213-5.536-4.41-9.547-9.69-12.137l-.534-.254a1.627 1.627 0 0 1-.798-2.158ZM48.582 28.893a1.627 1.627 0 0 1 1.235 3.011C33.636 38.542 26.113 53.48 30.531 67.075c1.854 5.257 4.81 9.619 8.57 13.175a35.143 35.143 0 0 0 7.365 5.347 28.91 28.91 0 0 0 2.404 1.172l.531.22c.143.055.25.095.318.118a1.627 1.627 0 0 1-1.051 3.08c-.783-.267-2.093-.827-3.754-1.73a38.376 38.376 0 0 1-8.05-5.843A36.342 36.342 0 0 1 27.45 68.12c-4.972-15.3 3.418-31.959 21.133-39.226Z"/></g></svg>
